/* XPM */
static char *e919115dc2b34819f30bde551f14eb6c4MLH8quYNwJaIrd8[] = {
/* columns rows colors chars-per-pixel */
"64 64 10 1 ",
"  c #2D6830",
". c #3E7D41",
"X c #71B41B",
"o c #548920",
"O c #5D9328",
"+ c #7ABE23",
"@ c #E8A800",
"# c #D6E800",
"$ c #839A4D",
"% c gray54",
/* pixels */
"................................................................",
"................................................................",
"........      ..............OOOOOOOOO...........................",
"........      ..........OOOOOOOOOOOOOOOOO.......................",
"........        ......OOOOOOOOOOOOOOOOOOOOO.....................",
"........        ....OOOOOOOOOOOOOOOOOOOOOOOOO...................",
"....  ....  ..  ...OOOOOOOOOOOOOOOOOOOOOOOOOOO..................",
"....  ....  ..  .OOOOOOO#OOOOOOOOOOOOOOOOOOOOOOO................",
"....    ..  ..  ooOOOOOOOOOOOOOOOOOOOOOOOOOOOOOO$%%%............",
"....    ..  .. oooOOOOOOOOOO+++++++++OOOOOOOOOOO$$%%............",
"....      ....OOooOOOOOOO++++++++#++++++OOOOOOOOOOO.............",
"....      ....OOooOOOOO+++++++++++++++++++OOOOOOOOO.............",
"....  ..  ...OOOooOOOO++#++++++++++++++++++OOOOOOOOO............",
"....  ..  ..OOOOooOO+++++++++++++++++++++++++OOOOOOOO...........",
"....  ....  OOOOooO+++++++++++++++++++++++++++OOOOOOO...........",
"....  .... oOOOOooO++++++++++###++++++++++++++OOOOOOOO..........",
"....  .....OOOO#oo++++++++++#####++++##+++#++++OOOOOOO....    ..",
"....  .....OOOOOoX+++++###++#####++#####++++++++OOOOOO....    ..",
"..........OOOOOOO+++++#####+#####+######++++++++OOOOOOO.      ..",
"..........OOOOOO++++++##################+++++++++OOOOOO.      ..",
"......%%..OOOOOO++++++#########@@#######+++++++++OOOOOo ..  ....",
"......%%..OOOOOO#++++++#######@@@@#####++++++#+++OOOOOo ..  ....",
"..........OOOOOO+++++++######@@@@@@###++++++++++XoOOooO.  ......",
"..........OOOOOO+++++++++####@@@@@@######+++++++XoOOooO.  ......",
"..........OOOOOO++++++++######@@@@########++++XXXoooOOO.  ......",
"..........OOOOOO+++++++#########@#########++++XXX#ooOOO.  ......",
"..........OOOOOO+++++++###################++XXXX+OooOOO.      ..",
"..........OOOOOOO++++++##################+++XXXXOOooOOO.      ..",
"...........OOOOOO+++++++###+###########+++++XX++OOooOO..  ..  ..",
"...........OOOOOOO++#+++++++#####+#####+++++XX+OOOooOO..  ..  ..",
"...........OOOOOOOO+++++++++#####+####++++++XXOOOOOOOO..  ..  ..",
"............OOOOOOO++++++++++###++  ++++++++XXO#OOOOO...  ..  ..",
"............OOOOOOOO++++++++++++++  +++++++++OOOOOOOO...........",
".............OOOOOOOOO++++++++++++   ++++++OOOOOOOOO............",
"..............OOOOOOOOO+++++++++++   +++++OOOOOOOOO.............",
"..............OOOOOOO OOO+++++++++   +++OOOOOOOOOOO.............",
"...............OOOOOO  OOOOO++++++   OOOOOOOOOOOOO..............",
"................OOOOO      OOOOOOO   OOOOOOOOOOO  ..............",
".................OOOO      OO#OOOO   OOOOOOOO     ..............",
"...................OOO       OOOOO   OO           ..............",
"....................OOO       OOOO   O            ..............",
"......................O        OOO   O           ...............",
"........................       OOO   O           ...............",
".........................      OO                ...............",
"..  ......  .............       .               ................",
"..  ......  ...............                   ..................",
"..    ....    ..............         ...................    ....",
"..    ....    ..........................................    ....",
"......  ..        ......................................    ....",
"......  ..        ......................................    ....",
"......    ..  ..  ....................................  ..  ....",
"......    ..  ..  ....................................  ..  ....",
"......  ..    ......................................    ..  ....",
"......  ..    ......................................    ..  ....",
"....................................................  ....  ....",
"....................................................  ....  ....",
"....................................................  ....  ....",
"....................................................  ....  ....",
"..........................................................  ....",
"..........................................................  ....",
"................................................%%..............",
"................................................%%..............",
"................................................................",
"................................................................"
};
