/* XPM */
static char *_c5fc101621e4babdac2cb086acc2747zIuBeXdQAhxLTGFi[] = {
/* columns rows colors chars-per-pixel */
"64 64 5 1 ",
"  c #2D6830",
". c #3E7D41",
"X c gray33",
"o c #46AEAF",
"O c gray54",
/* pixels */
"................................................................",
"................................................................",
"........      ..................................................",
"........      ..................................................",
"........        ................................................",
"........        ................................................",
"....  ....  ..  ................................................",
"....  ....  ..  ................................................",
"....    ..  ..    ..............................OOOO............",
"....    ..  ..    ..............................OOOO............",
"....      ......  ..............................................",
"....      ......  ..............................................",
"....  ..  ......  ..............................................",
"....  ..  ......  ..............................................",
"....  ....  ....  ..............................................",
"....  ....  ....  ..............................................",
"....  ..........  ........................................    ..",
"....  ..........  ........................................    ..",
"........................................................      ..",
"........................................................      ..",
"......OO..............................................  ..  ....",
"......OO..................oooooooooo..................  ..  ....",
".......................oooooooooooooooo.........  ..  ..  ......",
"......................oooooooooooooooooo........  ..  ..  ......",
"....................oooooooooooooooooooooo....      ....  ......",
"....................oooooooooooooooooooooo....      ....  ......",
"...................oooooooooooooooooooooooo.    ..  ....      ..",
"...................oooooooooooooooooooooooo.    ..  ....      ..",
"............XXXXXXXooooooooooooooooooooooooXXXXXXX  ....  ..  ..",
"........XXXXXXXXXXXooooooooooooooooooooooooXXXXXXXXXXX..  ..  ..",
".....XXXXXXXXXXXXXXXooooooooooooooooooooooXXXXXXXXXXXXXXX ..  ..",
"...XXXXXXXXoooXXXXXXXXooooooooooooooooooXXXXXXXXXoooXXXXXXX.  ..",
"..XXXXXXXXoooooXXXXXXXXXXXXXXXXXXXXXXXXXXXXXXXXXoooooXXXXXXX....",
"..XXXXXXXXoooooXXXXXXXXXXXXXXXXXXXXXXXXXXXXXXXXXoooooXXXXXXX....",
". XXXXXXXXXoooXXXXXXXXoooXXXXXXXXXXXoooXXXXXXXXXXoooXXXXXXXX ...",
". XXXXXXXXXXXXXXXXXXXoooooXXXXXXXXXoooooXXXXXXXXXXXXXXXXXXXX ...",
".  XXXXXXXXXXXXXXXXXXoooooXXXXXXXXXoooooXXXXXXXXXXXXXXXXXXX  ...",
"..   XXXXXXXXXXXXXXXXXoooXXXXXXXXXXXoooXXXXXXXXXXXXXXXXXX   ....",
"..      XXXXXXXXXXXXXXXXXXXXXXXXXXXXXXXXXXXXXXXXXXXXXX      ....",
"...         XXXXXXXXXXXXXXXXXXXXXXXXXXXXXXXXXXXXXX         .....",
".....              XXXXXXXXXXXXXXXXXXXXXXXX              .......",
"......                                                  ........",
"........                                              ..........",
"...........                                        .............",
"..  ......  ...                                .................",
"..  ......  .........                    .......................",
"..    ....    ..........................................    ....",
"..    ....    ..........................................    ....",
"......  ..        ......................................    ....",
"......  ..        ......................................    ....",
"......    ..  ..  ....................................  ..  ....",
"......    ..  ..  ....................................  ..  ....",
"......  ..    ......................................    ..  ....",
"......  ..    ......................................    ..  ....",
"....................................................  ....  ....",
"....................................................  ....  ....",
"....................................................  ....  ....",
"....................................................  ....  ....",
"..........................................................  ....",
"..........................................................  ....",
"................................................OO..............",
"................................................OO..............",
"................................................................",
"................................................................"
};
