/* XPM */
static char *_344355a813844e3f14a9e7de4a1f4feco0JXpOX96qQkJRo[] = {
/* columns rows colors chars-per-pixel */
"64 64 22 1 ",
"  c #2D682F",
". c #2D6830",
"X c #306C33",
"o c #6E7223",
"O c #287745",
"+ c #3E7D41",
"@ c gray33",
"# c #4B6565",
"$ c #C17A0F",
"% c #D37B09",
"& c #D47C0A",
"* c #DA7C09",
"= c #DC7F0B",
"- c #C57F13",
"; c #E57D06",
": c #378A54",
"> c #E58506",
", c #ED8604",
"< c #E78808",
"1 c #08D0D1",
"2 c #00FDFF",
"3 c gray54",
/* pixels */
"+++++++++++++++++++++++++::::::::::::::+++++++++++++++++++++++++",
"+++++++++++++++++++++::::::2222222222::::::+++++++++++++++++++++",
"++++++++......+++++:::::2222222222222222:::::+++++++++++++++++++",
"++++++++......+++::::::222222212212222222::::::+++++++++++++++++",
"++++++++........:::::2222221121221211222222:::::++++++++++++++++",
"++++++++.......O:::::2222222121111212222222::::::+++++++++++++++",
"++++..++++..++.O::::222222221111111122222222:::::+++++++++++++++",
"++++..++++..++.O::::222222222211112222222222:::::+++++++++++++++",
"++++....++..+@@#####222222222221122222222222#####@@3++++++++++++",
"++++....+@@#########222222222211112222222222####@#####@+++++++++",
"++++..@@@@###########2222222211111122222222####@#######@@@++++++",
"++++@@@@@###222###@####222222111111222222####@@###222###@@@@++++",
"+++@@@@@@##22222##@@@######################@@@@##22222##@@@@@+++",
"+++@@@@@@##22222##@@@#####################@@@@@##22222##@@@@@+++",
"+++@@@@@@###222###@@###222###@@@@@###222###@@@@###222###@@@@@+++",
"+++@@@@@@@#######@@@##22222##@@@@@##22222##@@@@@#######@@@@@@+++",
"++++@@@@@@@#####@@@@##22222##@@@@@##22222##@@@@@@#####@@@@@@..++",
"++++..@@@@@@@@@@@@@@###222###@@@@@###222###@@@@@@@@@@@@@@@....++",
"+++++++++@@@@@@@@@@@@#######@@@@@@@#######@@@@@@@@@@@@@+......++",
"+++++++++++++@@@@@@@@@#####@@@@@@@@@#####@@@@@@@@@@+++++......++",
"++++++33++++++++++++@@@@@@@@@@@@@@@@@@@@@@@@++++++++++..++..++++",
"++++++33++++++++++++++-----===<<<<===-----++++++++++++..++..++++",
"++++++++++++++++++++++-----===<<<<===-----++++++..++..++..++++++",
"++++++++++++++++++++++-----===<<<<===-----++++++..++..++..++++++",
"++++++++++++++++++++++----====<<<<====----++++......++++..++++++",
"+++++++++++++++++++++-----====<<<<====-----+++......++++..++++++",
"+++++++++++++++++++++-----====<<<<====-----+....++..++++......++",
"+++++++++++++++++++++-----====<<<<====-----+....++..++++......++",
"+++++++++++++++++++++-----====<<<<====-----+..++++..++++..++..++",
"++++++++++++++++++++------====<<<<====------..++++..++++..++..++",
"++++++++++++++++++++------====<<<<====------..++++++++++..++..++",
"++++++++++++++++++++------====<<<<====------..++++++++++..++..++",
"++++++++++++++++++++-----=====<<<<=====-----++++++++++++++++++++",
"++++++++++++++++++++-----=====<<<<=====-----++++++++++++++++++++",
"+++++++++++++++++++------=====<<<<=====------+++++++++++++++++++",
"+++++++++++++++++++------====<<<<<<====------+++++++++++++++++++",
"+++++++++++++++++++-----=====<<<<<<=====-----+++++++++++++++++++",
"++++++++++++++++++------=====<<<<<<=====------++++++++++++++++++",
"++++++++++++++++++------=====<<<<<<=====------++++++++++++++++++",
"++++++++++++++++++-----======<<<<<<======-----++++++++++++++++++",
"+++++++++++++++++-----$******>>>>>>******------+++++++++++++++++",
"+++++++++++++++XX$$$$$$******>>>>>>******$$$$$$X++++++++++++++++",
"+++++++++++XXXXXX$$$$$$******>>>>>>******$$$$$$XXXXX++++++++++++",
"++++++++XXXXXXXX$$$$$$$******>>>>>>******$$$$$$$XXXXXXX+++++++++",
"++..++XXXX  XXXX$$$$$$$******,,,,,,******$$$$$$$XXXXXXXXX+++++++",
"++..XXXXXX  XXXX$$$$$$*;;;;;,,,,,,,,;;;;;*$$$$$$XXXXXXXXXXX+++++",
"++.   XXXX    XX$$$$&&;;;;;;,,,,,,,,;;;;;;&&$$$$XXXXXXXX    ++++",
"++    XXXX    X$$&&&&;;;;;;;,,,,,,,,;;;;;;;&&&&$$XXXXXXX    X+++",
"+XXXXX  XX     %%%&&&;;;;;;;,,,,,,,,;;;;;;;&&&&&&XXXXXXX    XX++",
"+XXXXX  XX    %%%%&&&;;;;;;;;;;;;;;;;;;;;;;&&&&&&&XXXXXX    XX++",
"+XXXXX    XX  &&%%&&&&&;;;;;;;;;;;;;;;;;;&&&&&&&&&XXXX  XX  XX++",
"++XXXX    XX  X&%%&&&&&&&&;;;;;;;;;;;;&&&&&&&&&&&XXXXX  XX  XX++",
"++XXXX  XX    XXX&&&&&&&&&&&&&&&&&&&&&&&&&&&&&&XXXXX    XX  XX++",
"+++XXX  XX    XXXX&&&&&&&&&&&&&&&&&&&&&&&&&&&&XXXXXX    XX  X+++",
"+++XXXXXXXXXXXXXXXXX&&&&&&&&&&&&&&&&&&&&&&&&XXXXXXXX  XXXX  X+++",
"++++XXXXXXXXXXXXXXXXXXXX&&&&&&&&&&&&&&&&XXXXXXXXXXXX  XXXX  ++++",
"++++++XXXXXXXXXXXXXXXXXXXXXXo&&&&&&oXXXXXXXXXXXXXXXX  XXXX..++++",
"+++++++XXXXXXXXXXXXXXXXXXXXXXXXXXXXXXXXXXXXXXXXXXXXX  XXX+..++++",
"+++++++++XXXXXXXXXXXXXXXXXXXXXXXXXXXXXXXXXXXXXXXXXXXXXX+++..++++",
"++++++++++++XXXXXXXXXXXXXXXXXXXXXXXXXXXXXXXXXXXXXXXX++++++..++++",
"++++++++++++++++XXXXXXXXXXXXXXXXXXXXXXXXXXXXXXXX33++++++++++++++",
"++++++++++++++++++++++XXXXXXXXXXXXXXXXXXXX++++++33++++++++++++++",
"++++++++++++++++++++++++++++++++++++++++++++++++++++++++++++++++",
"++++++++++++++++++++++++++++++++++++++++++++++++++++++++++++++++"
};
