/* XPM */
static char *b4666724750141e59724bb7af0542f72E9owDCEnRPE1m3HV[] = {
/* columns rows colors chars-per-pixel */
"64 64 3 1 ",
"  c #2D6830",
". c #3E7D41",
"X c gray54",
/* pixels */
"................................................................",
"................................................................",
"........      ..................................................",
"........      ..................................................",
"........        ................................................",
"........        ................................................",
"....  ....  ..  ................................................",
"....  ....  ..  ................................................",
"....    ..  ..    ..............................XXXX............",
"....    ..  ..    ..............................XXXX............",
"....      ......  ..............................................",
"....      ......  ..............................................",
"....  ..  ......  ..............................................",
"....  ..  ......  ..............................................",
"....  ....  ....  ..............................................",
"....  ....  ....  ..............................................",
"....  ..........  ........................................    ..",
"....  ..........  ........................................    ..",
"........................................................      ..",
"........................................................      ..",
"......XX..............................................  ..  ....",
"......XX..............................................  ..  ....",
"................................................  ..  ..  ......",
"................................................  ..  ..  ......",
"..............................................      ....  ......",
"..............................................      ....  ......",
"............................................    ..  ....      ..",
"............................................    ..  ....      ..",
"............................................  ....  ....  ..  ..",
"............................................  ....  ....  ..  ..",
"............................................  ..........  ..  ..",
"............................................  ..........  ..  ..",
"................................................................",
"................................................................",
"............................XXXXXX..............................",
"............................XXXXXX..............................",
"............................XXXXXXXX............................",
"............................XXXXXXXX............................",
"................................................................",
"................................................................",
"................................................................",
"................................................................",
"....................    ........................................",
"....................    ........................................",
"..  ......  ......  ..  ........................................",
"..  ......  ......  ..  ........................................",
"..    ....    ....  ..  ................................    ....",
"..    ....    ....  ..  ................................    ....",
"......  ..        ....  ................................    ....",
"......  ..        ....  ................................    ....",
"......    ..  ..  ....  ..............................  ..  ....",
"......    ..  ..  ....  ..............................  ..  ....",
"......  ..    ........  ............................    ..  ....",
"......  ..    ........  ............................    ..  ....",
"....................................................  ....  ....",
"....................................................  ....  ....",
"....................................................  ....  ....",
"....................................................  ....  ....",
"..........................................................  ....",
"..........................................................  ....",
"................................................XX..............",
"................................................XX..............",
"................................................................",
"................................................................"
};
