/* XPM */
static char *_2f20eadb0dc4518e1c68a8cc4c552dePADncOGjEMbUNity[] = {
/* columns rows colors chars-per-pixel */
"64 64 22 1 ",
"  c #2C2822",
". c #4E391E",
"X c #413424",
"o c #652E20",
"O c #703A2D",
"+ c #255728",
"@ c #2D6830",
"# c #7F521B",
"$ c #4C4F2A",
"% c #614729",
"& c #664E32",
"* c #7D5F3C",
"= c #233560",
"- c #3E7D41",
"; c #2D4070",
": c #6C6868",
"> c #956224",
", c #B1834A",
"< c #D3A165",
"1 c gray54",
"2 c gray55",
"3 c #97928B",
/* pixels */
"-------------------->>>>>>>>>>#---------------------------------",
"------------------->>>>>>>>>>>##--------------------------------",
"--------@@@@@@---->>>>>>>>>>>####---------------------:---2-----",
"--------@@@@@@>>>>>>>>>>>>>##########-------------:--2:---2:--2-",
"--------@@@@@>>>>>>>>>>>>############>>----------2:--2:---2:--2:",
"--------@@@@>>>>>>>>>>>>>>>>>>>>>>>>>>>>---------2:--2:---2:--2:",
"----@@----@@->>>>>>>>>>>>>>>>>>>>>>>>>>----------2:--2:---2:--2:",
"----@@----@@--@@->>>>>>>>>>>>>>>>>>--------------2:--2:---2:--2:",
"----@@@@--@@--@@@@%%%%%%%%%%%%%%%%---------------2:--2:---2:--2:",
"----@@@@--@@--@@@@%%%%%%%%%%%%%%%%---------------2:--2:---2:--2:",
"----@@@@@@------@@<<%%%%%%%%%%%%<<---------------2:--2:---2:--2:",
"----@@@@@@------@@<<<<<<<<<<<<<<<<---------------22222:---22222:",
"----@@--@@------@@<<<<<<<<<<<<<<<<---------------2222222222222::",
"----@@--@@------@@-<<<<<<XXXXX<<<-----------------22222222222::-",
"----@@----@@---OO;;=o<<<XX<<<>>>;;=----------------22222222:::--",
"----@@----@@-OOOO;;=oo<<<<<<<<o>>;=ooO---------------:::::::----",
"----@@------OOOOO;;=ooO<<<<<<ooo>>=ooOOO---------------**&@@@@--",
"----@@----OOOOOOO;;=ooOOOooooooO;>=ooOOOO--------------**&@@@@--",
"---------OOOOOOOO;;=ooOOOOooooOO;>>ooOOOOO-------------**&@@@@--",
"--------OOOOOOOOO;;=ooOOOOOOOOOO;>>ooOOOOOO------------**&@@@@--",
"------1OOOOOOOOOO;;==ooOOOOOOOO;;>>ooOOOOOo-----------@**&@@----",
"------OOOOOOOOOOO;;;=ooOOOOOOOO;;;>ooOOOOOoo----------@**&@@----",
"-----OOOOOOOOOOOO;;;=oooOOOOOOO;;==ooOOOOOOo----@@--@@-**&------",
"-----OOOOOOOOOOoOO;;=oooOOOOOOO;;=oooOOOOOOo----@@--@@-**&------",
"----OOOOOOOOOOooOO;;=ooooOOOOOO;;=oooOOOOOOoo-@@@@@@-,,,,,,-----",
"----OOOOOOOOOooOOO;;=ooooOOOOOO;;=oooOOOOOOoo-@@@@@@<,<<<<<-----",
"----OOOOOOOoooOOOO;;=oooooOOOOO;;=oooOOOOOOOoo@@--@@<,,,,,,@@@--",
"----OOOOOoooOOOOOO;;=ooooooOOOO;;=ooooOOOOOOoo@@OOO<<,<<<<<@@@--",
"---OOOOOOo$-OOOOOO;;;;;;;;;;;;;;;=ooooOOOOOOOoOOOOOO<,,,,,,-@@--",
"---OOOOOOo$-OOOOOO;;;;;;;;;;;;;;;=oooooOOOOOOoOOOOOO<,<<<<<-@@--",
"---OOOOOOo$$OOOO;;;;;;;;;;;;;;;;;;;;oooOOOOOOoOOOOOOO,,,,,,-@@--",
"---OOOOOOooooOOO;;;;;33;;;;; ; ;;;;;oooOOOOOOOOOOOOOO<<**&--@@--",
"---OOOOOOOoooO;;;;;;3333;;;;; ;;;;;;;;oo-OOOOOOOOOOOo--**&------",
"----OOOOOOOOoo;;;;;;;33;;;;; ; ;;;;;;;oo-OOOOOOOOOooo--**&------",
"----OOOOOOOOOo;;;;;;;;;;;;;;;;;;;;;;;;oo--OOOOOOooo----**&------",
"----OOOOOOOOOO;;;;;;;;;;;;;;;;;;;;;;;;oo--OOOooooo-----**&------",
"-----OOOOOOO;;;;;;;;;;;;;;;;;;;;;;;;;;;=---ooo---------**&------",
"------OOOOOO;;;;;;;;;;;;;;;;;;;;;;;;;;;=---------------**&------",
"------OOOO;;;;;;;;;;;;;;;;;;;;;;;;;;;;;===-------------**&------",
"--------OO;;;;;;;;;;;;;;;;;;;;;;;;;;;;;===-------------**&------",
"----------;;;;;;;;;;;;;;;;;;;;;;;;;;;;;===-------------**&------",
"----------;;;;;;;;;;;;;;;;;;;;;;;;;;;;;;==-------------**&------",
"----------;;;;;;;;;;;;;;;;;;;;;;;;;;;;;===-------------**&------",
"----------;;;;;;;;;;;;;;;;;;;;;;;;;;;;;===-------------**&------",
"--@@------;;;;;;;;;;;;;;;;;;;;;;;;;;;;;===-------------**&------",
"--@@------;;;;;;;;;;===;;;;;;;;;;;;;;;;===-------------**&------",
"--@@@@----;;;;;;;;;;===;;;;=====;;;;;;;===-------------**&@@----",
"--@@@@----;;;;;;;;;;==;;;;;=====;;;;;;;===-------------**&@@----",
"------@@--;;;;;;;;;;==@@------==;;;;;;;===-------------**&@@----",
"------@@--;;;;;;;;====@@------==;;;;;;;===-------------**&@@----",
"------@@@@;;;;;;;;====@@------===;;;;;;===------------@**&@@----",
"------@@@@;;;;;;;;====@@------===;;;;;;===------------@**&@@----",
"------@@--;;;;;;;;==--@@--------=;;;;;;===----------@@@**&@@----",
"------@@--;;;;;;;===--@@--------;;;;;;;===----------@@@**&@@----",
"----------;;;;;;;===------------;;;;;;;===----------@@-**&@@----",
"----------;;;;;;;===------------;;;=======----------@@-**&@@----",
"----------;;;;;;;===------------;;========----------@@-**&@@----",
"----------;;;;;;;===------------;;===;;;==----------@@-**&@@----",
"----------;;;;;;;===++++++++++++;;;;;;====-------------**&@@----",
"----++++++;;;;;;;;==++++++++++++==========+++++++------**&@@----",
"-+++++..............++++++++++++..............++++++---**&------",
"++++++..............++++++++++++..............+++++++--**&------",
"-+++++..............++++++++++++..............++++++---**&------",
"----++..............++++++++++++..............+++------**&------"
};
