/* XPM */
static char *_a137614852c409d887cd4974d397fb78VkWxB4Q8sQ4CB7j[] = {
/* columns rows colors chars-per-pixel */
"64 64 22 1 ",
"  c gray13",
". c #232323",
"X c #232723",
"o c #282828",
"O c #2D6830",
"+ c #725935",
"@ c #3E7D41",
"# c #866B44",
"$ c #3C9541",
"% c #CC9A19",
"& c #FFD627",
"* c #B95EA9",
"= c gray54",
"- c #BCBCBC",
"; c #DB85CC",
": c #FFAEF1",
"> c gray81",
", c #D0D0D0",
"< c gainsboro",
"1 c #FFC3F5",
"2 c gray91",
"3 c white",
/* pixels */
"@@@@@@OO@@@@@@@@@@@@##############@@@@@@@@@@@@@@@@@@@@@@@@@@@@@@",
"@@@@@@OO@@@@@@@@@@@@##############@@@@@@@@@@@@@@@@@@@@@@@@@@@@@@",
"@@@@@@OO@@@@@@@@@@@@##############@@@@@@@@##########@@####@@@@@@",
"@@@@@@OO@@@@@@@@@@@@##############@@@@@@@@##########@@####@@@@@@",
"@@OOOOOO@@@@@@@@@@########################################@@@@@@",
"@@OOOOOO@@@@@@@@@@########################################@@@@@@",
"@@OOOOOO##@@################################################@@@@",
"@@OOOOOO##@@################################################@@@@",
"@@@@OOOO##@@###########################.....####====#####2222@@@",
"@@@@OOOO##@@##########################......####====####222222@@",
"@@@@OOOO##############################&.&.....#########2222222##",
"@@@@OOOO##############################&#&>....########22222222##",
"@@@@@@################################&&&#......2222222222##22##",
"@@@@@@#################################&&#......2222222222######",
"@@@@@@####################################......2222222222@@####",
"@@@@@@####################################...2222222222222@@####",
"@@@@@@##..............................####22223XXX223XXX22@@####",
"@@@@@@##.................................#22223XXX223XXX22@@####",
"@@@@.....................................-2222XXXX22XXXX22####@@",
"@@@@......<.............................--2222XXXX22XXXX22####@@",
"@@@@...<<<<<<..........................<--222222222222222.##@@@@",
"@@@@...<<<<<<<.......................<<<--22222222222222..##@@@@",
"@@@@...<<<<<<<<....................<<<<<--22222222........####@@",
"@@@@...<<<<<<<<...................<<<$<<--22222222........##$#@@",
"@@##-..<<<<<<<<<..................<<<$$<--111111111111::::#$$#@@",
"@@##-...<<<<<<<<<.................<<<<<$$$11::::::::::::::$$##@@",
"@@##--....<<<<<<<<<.............<<<$$$$$$$1:****11::****::$$$$$@",
"@@##<--....<<<<<<<<<............<<<$<<<<-$1:*;;;11::*;;;::$$##$@",
"@@##<<---.........<<<.........<<<<<<<<<$$$1:&%;;11::*;&%::#$##@@",
"@@##<<<<--.......<<<<<........<<<<<<<$$<--1:&%;;11::*;&%::#$##@@",
"@@##<<<<<---....<<<<<<<<<<<<<<<<<<<<<$<<--::&%::11::::&%::####@@",
"@@##<<<<<<<------<<<<<<<<<<<<<<<<<<<<<<<--::&%::::::::&%::####@@",
"@@####<<<<<<----<<<<<<<<<<<<<<..........    &&&&&&&&&&&%######OO",
"@@####<<<<<<<<<<<<<<<<<<<<<<<<...........   %%%%%%%%%%%%######@@",
"@@####....<<<<<<<<<<<<<<<<<.............. ..----##############@@",
"@@####....<<<<<<<<<<<<<<<<..................----##############@@",
"@@####......<<<<<<<<<<<<<<................,-----############@@@@",
"@@####......<<<<<<<<<<<<<<................<<<<<<############@@@@",
"@@####......<<<<<<<<<<<<<<................<<################@@@@",
"@@####......<<<------------...............<<################@@@@",
"######......<<<;;;;;;;;###########---<<<<<##################@@@@",
"######......<<<;;;;;;::###########---<<<<<##################@@@@",
"########..<<<<<;;##;::##############-<<<<<######################",
"########..<<<<<;;##;::##############-<<<<<######################",
"######@@..<<<<#;####:###############-<<<########################",
"######@@..<<<<######################-<.<########################",
"######@@-<<<<<######################-...########################",
"######@@-<<<<<#########+++++++++++++-...+++#####################",
"######@@-<<<####++++++++++++++++++++-...++++++++++##############",
"######@@-<<<++++++++++++++++++++++++-...++++++++++++++##########",
"@@######-<<<++++++++++++++++++++++++-.X.++++++++++++++++@@##@@@@",
"@@######-<<<++++++++++++++++++++++++-<X<++++++++++++++++++##@@@@",
"@@#####+-<<<++++++++++++++++++++++++-<<<+++++++++++++++++++#@@@@",
"@@#####+-<<<o+++++++++++++++++++++++>2<<o++++++++++++++++++#@@@@",
"@@@@###+oooooo++++++++++++++++++++++oooooo+++++++++++++++++@OO@@",
"@@@@###+oooooo++++++++++++++++++++++oooooo+++++++++++++++++@OO@@",
"@@@@####oooooo++++++++++++++++++++++XXoooo+++++++++++++++OOOOO@@",
"@@@@######+++++++++++++++++++++++++++++++++++++++++++++++OOOOO@@",
"@@@@@@######++++++++++++++++++++++++++++++++++++++++++##@@OOOO@@",
"@@@@@@##########++++++++++++++++++++++++++++++++++######@@OOOO@@",
"@@@@@@@@###############++++++++++++++++++++#############@@@@OO@@",
"@@@@@@@@################################################@@@@OO@@",
"@@@@@@@@@@@@@@@@@@@@@@@@@@@@@@@@@@@@@@@@@@@@@@##########@@@@@@@@",
"@@@@@@@@@@@@@@@@@@@@@@@@@@@@@@@@@@@@@@@@@@@@@@##########@@@@@@@@"
};
