/* XPM */
static char *_41c5f73476c474186adb80e011c1817N4ssDZLjzzZVeFd1[] = {
/* columns rows colors chars-per-pixel */
"64 64 22 1 ",
"  c gray13",
". c #232323",
"X c #232723",
"o c #282828",
"O c #2D6830",
"+ c #725935",
"@ c #3E7D41",
"# c #866B44",
"$ c #3C9541",
"% c #CC9A19",
"& c #FFD627",
"* c #B95EA9",
"= c gray54",
"- c #BCBCBC",
"; c #DB85CC",
": c #FFAEF1",
"> c gray81",
", c #D0D0D0",
"< c gainsboro",
"1 c #FFC3F5",
"2 c gray91",
"3 c white",
/* pixels */
"@@@@@@OO@@@@@@@@@@@@##############@@@@@@@@@@@@@@@@@@@@@@@@@@@@@@",
"@@@@@@OO@@@@@@@@@@@@##############@@@@@@@@@@@@@@@@@@@@@@@@@@@@@@",
"@@@@@@OO@@@@@@@@@@@@##############@@@@@@@@##########@@####@@@@@@",
"@@@@@@OO@@@@@@@@@@@@##############@@@@@@@@##########@@####@@@@@@",
"@@OOOOOO@@@@@@@@@@########################################@@@@@@",
"@@OOOOOO@@@@@@@@@@########################################@@@@@@",
"@@OOOOOO##@@################################################@@@@",
"@@OOOOOO##@@################################################@@@@",
"@@@2222O##@@====####.....###################################@@@@",
"@@222222##@@====####......##################################@@@@",
"@@2222222#########.....&.&######################################",
"@@22222222########....>&#&######################################",
"@@22@@2222222222......#&&&######################################",
"@@@@@@2222222222......#&&#######################################",
"@@@@@@2222222222......####################################@@####",
"@@@@@@2222222222222...####################################@@####",
"@@@@@@22XXX322XXX32222####..............................##@@####",
"@@@@@@22XXX322XXX32222#.................................##@@####",
"@@@@@@22XXXX22XXXX2222-.....................................##@@",
"@@@@@@22XXXX22XXXX2222--.............................<......##@@",
"@@@@##.222222222222222--<..........................<<<<<<...@@@@",
"@@@@##..22222222222222--<<<.......................<<<<<<<...@@@@",
"@@@@##........22222222--<<<<<....................<<<<<<<<...##@@",
"@@@$##........22222222--<<$<<<...................<<<<<<<<...##@@",
"@@#$$#::::111111111111--<$$<<<..................<<<<<<<<<..-##@@",
"@@##$$::::::::::::::11$$$<<<<<.................<<<<<<<<<...-##@@",
"@$$$$$::****::11****:1$$$$$$$<<<.............<<<<<<<<<....--##@@",
"@$##$$::;;;*::11;;;*:1$-<<<<$<<<............<<<<<<<<<....--<##@@",
"@@##$#::%&;*::11;;%&:1$$$<<<<<<<<<.........<<<.........---<<##@@",
"@@##$#::%&;*::11;;%&:1--<$$<<<<<<<........<<<<<.......--<<<<##@@",
"@@####::%&::::11::%&::--<<$<<<<<<<<<<<<<<<<<<<<<....---<<<<<##@@",
"@@####::%&::::::::%&::--<<<<<<<<<<<<<<<<<<<<<<<------<<<<<<<##@@",
"@O######%&&&&&&&&&&&  ............<<<<<<<<<<<<<<----<<<<<<####@@",
"@O######%%%%%%%%%%%%  ............<<<<<<<<<<<<<<<<<<<<<<<<####@@",
"@@##############----  ...............<<<<<<<<<<<<<<<<<....####@@",
"@@##############----  ................<<<<<<<<<<<<<<<<....####@@",
"@@##############-----,................<<<<<<<<<<<<<<......##@@@@",
"@@##############<<<<<<................<<<<<<<<<<<<<<......##@@@@",
"@@##################<<................<<<<<<<<<<<<<<......##@@@@",
"@@##################<<...............------------<<<......##@@@@",
"######################<<<<<---###########;;;;;;;;<<<......##@@@@",
"######################<<<<<---###########::;;;;;;<<<......##@@@@",
"######################<<<<<-##############::;##;;<<<<<..########",
"######################<<<<<-##############::;##;;<<<<<..########",
"######@@################<<<-###############:####;#<<<<..########",
"######@@################<.<-######################<<<<..########",
"######@@################...-######################<<<<<-########",
"######@@#############+++...-+++++++++++++#########<<<<<-########",
"######@@######++++++++++...-++++++++++++++++++++####<<<-########",
"######@@##++++++++++++++...-++++++++++++++++++++++++<<<-########",
"@@######++++++++++++++++...-++++++++++++++++++++++++<<<-@@##@@@@",
"@@####++++++++++++++++++<.<-++++++++++++++++++++++++<<<-@@##@@@@",
"@@###+++++++++++++++++++<<<-++++++++++++++++++++++++<<<-+###@@@@",
"@@###++++++++++++++++++o<<<-+++++++++++++++++++++++o<<<-+###@@@@",
"@@@@#+++++++++++++++++oooooo++++++++++++++++++++++oooooo+++@OO@@",
"@@@@##++++++++++++++++oooooo++++++++++++++++++++++oooooo+++@OO@@",
"@@@@###+++++++++++++++oooooo++++++++++++++++++++++ooooooOOOOOO@@",
"@@@@###+++++++++++++++++++++++++++++++++++++++++++++++@@OOOOOO@@",
"@@@@@@####++++++++++++++++++++++++++++++++++++++++++####@@OOOO@@",
"@@@@@@########++++++++++++++++++++++++++++++++++########@@OOOO@@",
"@@@@@@@@#############++++++++++++++++++++###############@@@@OO@@",
"@@@@@@@@################################################@@@@OO@@",
"@@@@@@@@@@@@@@@@@@@@@@@@@@@@@@@@@@@@@@@@@@@@@@##########@@@@@@@@",
"@@@@@@@@@@@@@@@@@@@@@@@@@@@@@@@@@@@@@@@@@@@@@@##########@@@@@@@@"
};
