/* XPM */
static char *_04b60ce8f1b438fbdc8806c504160f1Pm5OB7XXJY6JZzvs[] = {
/* columns rows colors chars-per-pixel */
"64 64 12 1 ",
"  c #4D4545",
". c #595151",
"X c #6A6A6A",
"o c gray43",
"O c gray45",
"+ c #767676",
"@ c gray47",
"# c gray50",
"$ c gray51",
"% c #848484",
"& c #898989",
"* c #8D8D8D",
/* pixels */
"@#@##@$&&#.....@@$%&@+O@$%%%***&$%%%&&*&&%** .....$&**&*$%&*&$$$",
"#%#@OOO+++O ...##&%&+Oo+#&&&%$%$%%$#$$$#$@#@ .....%**#O@@#$%%@++",
"OO+OOXOO+oO ...+#**&OOO++@@#$$$#%$#+OOOOOoOO  ....%*&#@@@@@###+O",
"OO@++oOOOOo  ..O$**$+@@@@$%$@+Oo+++OoOoOoOOOO ...+&*%@@@@@@$@+oO",
"oO#@@O+OOoXX ..X****#$###++OOoO++OoOOoOoOoXXX ..X$**##$+O+++O+OO",
"++OOOoXXXXXX ..X%**$O@@@++OOoOOOOOOOOooXXXXX  ..o$%$+@@+oO++OOoO",
"++OOXXXXXXXX ...&**$O+@#++OOOOoOOoXXXXXXXXXX ..Xo%*&#$#@OOOOOOOO",
"OoXXXXXXXXXX  ..#%%@O+OOOOOOOoooXXXXXXXXXXX  ..O+**&@@++OOoOOOXX",
"XXXXXXXXXXXXX ..+$$#O+OOoOOOoXXXXXXXXXXXXXX  ..O+%%$+O++OOXXXXXX",
"XXXXXXXXXXXXX ..XO++ooXXXXXXXXXXXXXXXXXXXXX ...OO#+OXXXXXXXXXXXX",
"XXXXXXXXXXXX  ..XOoOXXXXXXXXXXXXXXXXXXXXX   ....XXXXXXXXXXXXXXXX",
"XXXXXXXXXX   ....XXXXXXXXXXXXXXXXXXXXXX    ......XXXXXXXXXXXXXXX",
"XXXXX      ......                       .........       X       ",
"      ...........................  .....................  ......",
".......XO+@@O+O+O+OOOO+OOoXXX...........#$%&**&%%$@@#+......O+@O",
"++.. ..***&&%$#####@@#%&&***%OOO..OO+##$%**********%*&.....O@###",
"@OX. .o**********************@++ ..%&%&***************.....%&**&",
"@OX  .+***&***&%&************$## ..******************* ...&****%",
"XXX ..$&&$#$$%%%%&&*&&%$$$$##@+O ..******&%&&&&&&&***%# .******$",
"XXX ..***%%$$$#@@#@#@#@+oOoO++#@  .*****$%%%####$$#@#$$  .****$#",
"XXX .&**&$$####+@++OO+OOO+++OOOO# .***$%%%#++@@+$$$###+  .&***#@",
"XXX .&**&#$@+@+O+O++@@#@+OOOoOOO@ .$$*&&@###++#$%%#+OOO ..&***+O",
"XXX .%**&$%@@@@#@@@+OoOOOoOOoXXXX .**%@@O++@@##++OOoXXX  .****oX",
"XXX .$**%%&#@#@++OoOOOOOOXXXXXXX ..%%#+++@##+OOOooXXXXX ..%**%XX",
"XX  .@$#+#$#@++OOoooXXXXXXXXXXXX .@#%++OOOOOOOXXXXXXXXX ..@**$XX",
"XX ..OOOXOOOXXXXXXXXXXXXXXXXXXXX .XXOO+OOOOXXXXXXXXXXXX ..X%$$XX",
"XX ..XXXXXXXXXXXXXXXXXXXXXXXXXX ..XXOOOXXXXXXXXXXXXXXXX ....@@XX",
"X  ....XXXXXXXXo     XXXXXXXX   ..XXXXXXXX  XXXXXXXXXX  ....OOXX",
"   ....                       ....         .           .....    ",
"..................................  ............................",
"@#+#@$###@@+OoX.....O#$#O++@+OO...............oXoO+++OOOO++OO++.",
"$#+#$&%*&&%%$#@@ ...+***%@@$#@@@+OoOO++OoX....@@##$$$@+#$&%$&***",
"$$##$$%*&%#@@@#@ ...$*******&%#%$%@##%%%OX ...$$#$$%&$$$***&&***",
"&####$$%%$$$&%$@ ...%*****$&****&*&*&**&+X  .$*&$$@#####%%$#$&*%",
"*$%%$#@@#+Oo++OX ...%*********%%%*******$XX .**@O+OO+@#@@+OoXXXo",
"&#@@@+OOOOOO+OOX ..$****%$%&*&%$%%***&*&$XX .**#+@@+oOOOOooOOOoO",
"*Oo@@#++OoOO+OO  ..#%***%$%*%@OO+@##%#&$#X ..**#O+OOOO+@+OoOooOo",
"#oXOO+OOOOO+@@@ ...#****%%$#++@##+++++OoXX ..*%@O+OOOoOOOoOOOOOo",
"+oO@###@#++@@#  ..@@%&*####@+@+OOOoXXXXXXX ..$#++++OoOOOOoXXXXXX",
"oOO+OOOOOOOOOO ...+#&%$+###+OOOOOXXXXXXXXX ..OOXoO++OoXXXXXXXXXX",
"oOOOOOOOOOoXXX ...@%*$%%&++OOoXXXXXXXXXXXX ...XXoO+OXXXXXXXXXXXX",
"XXXXXXXXXXXXX  ...%**$&&%+OOoXXXXXXXXXXXX  ...XXXXXXXXXXXXXXXXXX",
"XXXXXXXXXXXXX ....$&*#*%#XXXXXXXXXXXXXXXX .....XXXXXXXXXXXXXXXXX",
"XXXXXXXXXXXXX ....##%++oXXXXXXXXXXXXXXX   .X....XXXXXXXXXXXXXXXX",
"        XXXXX .X..oXOooXXXXXXXXXXXXX     ........XXXXXXXXXXXXXXX",
".......       .X..XXXXXXXXXXXXXXXXX   ...........               ",
".XXXX..........X..  XXXXXXXXXXXXXX  .XXXXXXX....................",
"@+++OOO............   XXXXXXXXX   ..O+#$##@@@####@O......XXOOO..",
"@++@#@@@+++O.........      XX  ....++@&*&*********%@ ..X+#$$#$#@",
"@##$$$&%&**&#@+##$@@......    ...+O@#*************%%  .X#&*&$$#@",
"+##$%&$$%****&%$$$$$&%#.......O#$%$%%%&&&***$##$#%&&# .O$**&###@",
"$%$$####%****&%%&&&**%@OO ...+$&**&&%%%%$$$@OoOOOO+@O .@%$%$@ooX",
"%%##@@++@#@####+@@@#&%$++ ..+#&***&%$#@#@OOOOOOOOOOOX .#%@&&*$#O",
"$#@+OOOoOO+OOoOO+++++oOOo  .$%****$#@#@@+OOOOOOooXXXX .#%@&$&$@O",
"#@OOOOoOOOOoXXXXXXXXXoOOOO .%%****%$#++OOXXXXXXXXXXXX .@&$%$%$#O",
"#+OOoooXXXXXXXXXXXXXXXXXXo ..&****&$+OXXXXXXXXXXXXXXX .@&&#oXXXX",
"oOXXXXXXXXXXXXXXXXXXXXXXXX  .$&&**$OXXXXXXXXXXXXXXXX  .+$#+XXXXX",
"XXXXXXXXXXXXXXXXXXXXXXXXXXO ..@+#@OXXXXXXXXXXXXXXXXX  .oOOOXXXXX",
"XXXXXXXXXXXXXXXXXXXXXXXX    ....oooXXXXXXXXXXXXXXXX  .. XXXXXXXX",
"      XoXXXXXXXXXXXXX.  ........                     ..         ",
".....                 ..........................................",
"O...............................................................",
"*****%$$$#......$&&$@@##@@@$######$#@@@***+.......##$%*****%@OO@",
"*****%#$$@o....O%**&$%&%$$$&%%$%&%&%%##***@o ....$@#$%*****%@OO@"
};
